<?xml version="1.0" encoding="UTF-8" standalone="no"?>
<!DOCTYPE svg PUBLIC "-//W3C//DTD SVG 1.1//EN"
 "http://www.w3.org/Graphics/SVG/1.1/DTD/svg11.dtd">
<!-- Generated by graphviz version 2.43.0 (0)
 -->
<!-- Title: G Pages: 1 -->
<svg width="238pt" height="392pt"
 viewBox="0.00 0.00 238.23 392.00" xmlns="http://www.w3.org/2000/svg" xmlns:xlink="http://www.w3.org/1999/xlink">
<g id="graph0" class="graph" transform="scale(1 1) rotate(0) translate(4 388)">
<title>G</title>
<polygon fill="white" stroke="transparent" points="-4,4 -4,-388 234.23,-388 234.23,4 -4,4"/>
<!-- 0 -->
<g id="node1" class="node">
<title>0</title>
<ellipse fill="none" stroke="black" cx="125.23" cy="-366" rx="27" ry="18"/>
<text text-anchor="middle" x="125.23" y="-362.3" font-family="Times,serif" font-size="14.00">0</text>
</g>
<!-- 1 -->
<g id="node2" class="node">
<title>1</title>
<ellipse fill="none" stroke="black" cx="53.23" cy="-279" rx="27" ry="18"/>
<text text-anchor="middle" x="53.23" y="-275.3" font-family="Times,serif" font-size="14.00">1</text>
</g>
<!-- 0&#45;&gt;1 -->
<g id="edge1" class="edge">
<title>0&#45;&gt;1</title>
<path fill="none" stroke="black" d="M111.11,-350.64C105.14,-344.41 98.21,-336.97 92.23,-330 85.02,-321.6 77.46,-312.09 70.94,-303.64"/>
<polygon fill="black" stroke="black" points="73.66,-301.44 64.81,-295.62 68.1,-305.69 73.66,-301.44"/>
<text text-anchor="middle" x="101.73" y="-318.8" font-family="Times,serif" font-size="14.00">11</text>
</g>
<!-- 2 -->
<g id="node3" class="node">
<title>2</title>
<ellipse fill="none" stroke="black" cx="125.23" cy="-192" rx="27" ry="18"/>
<text text-anchor="middle" x="125.23" y="-188.3" font-family="Times,serif" font-size="14.00">2</text>
</g>
<!-- 0&#45;&gt;2 -->
<g id="edge2" class="edge">
<title>0&#45;&gt;2</title>
<path fill="none" stroke="black" d="M125.23,-347.88C125.23,-318 125.23,-256.11 125.23,-220.27"/>
<polygon fill="black" stroke="black" points="128.73,-220.05 125.23,-210.05 121.73,-220.05 128.73,-220.05"/>
<text text-anchor="middle" x="132.23" y="-275.3" font-family="Times,serif" font-size="14.00">&#45;2</text>
</g>
<!-- 1&#45;&gt;2 -->
<g id="edge3" class="edge">
<title>1&#45;&gt;2</title>
<path fill="none" stroke="black" d="M66.1,-262.8C77.16,-249.75 93.26,-230.74 105.87,-215.85"/>
<polygon fill="black" stroke="black" points="108.67,-217.96 112.47,-208.06 103.33,-213.43 108.67,-217.96"/>
<text text-anchor="middle" x="98.23" y="-231.8" font-family="Times,serif" font-size="14.00">2</text>
</g>
<!-- 4 -->
<g id="node4" class="node">
<title>4</title>
<ellipse fill="none" stroke="black" cx="89.23" cy="-18" rx="27" ry="18"/>
<text text-anchor="middle" x="89.23" y="-14.3" font-family="Times,serif" font-size="14.00">4</text>
</g>
<!-- 1&#45;&gt;4 -->
<g id="edge4" class="edge">
<title>1&#45;&gt;4</title>
<path fill="none" stroke="black" d="M41.18,-262.58C36.98,-256.69 32.5,-249.76 29.23,-243 8.79,-200.79 -4.8,-187.36 2.23,-141 8.29,-100.97 4.03,-85.69 29.23,-54 36.52,-44.82 46.93,-37.57 57.04,-32.1"/>
<polygon fill="black" stroke="black" points="58.74,-35.16 66.14,-27.57 55.62,-28.89 58.74,-35.16"/>
<text text-anchor="middle" x="11.73" y="-144.8" font-family="Times,serif" font-size="14.00">13</text>
</g>
<!-- 2&#45;&gt;4 -->
<g id="edge6" class="edge">
<title>2&#45;&gt;4</title>
<path fill="none" stroke="black" d="M118.95,-174.47C114.01,-160.84 107.29,-140.91 103.23,-123 97.38,-97.28 93.67,-67.39 91.55,-46.27"/>
<polygon fill="black" stroke="black" points="95.01,-45.72 90.58,-36.1 88.04,-46.39 95.01,-45.72"/>
<text text-anchor="middle" x="112.73" y="-101.3" font-family="Times,serif" font-size="14.00">14</text>
</g>
<!-- 3 -->
<g id="node5" class="node">
<title>3</title>
<ellipse fill="none" stroke="black" cx="203.23" cy="-105" rx="27" ry="18"/>
<text text-anchor="middle" x="203.23" y="-101.3" font-family="Times,serif" font-size="14.00">3</text>
</g>
<!-- 2&#45;&gt;3 -->
<g id="edge5" class="edge">
<title>2&#45;&gt;3</title>
<path fill="none" stroke="black" d="M138.81,-176.19C151,-162.91 169.06,-143.23 182.96,-128.08"/>
<polygon fill="black" stroke="black" points="185.61,-130.37 189.8,-120.64 180.46,-125.64 185.61,-130.37"/>
<text text-anchor="middle" x="177.73" y="-144.8" font-family="Times,serif" font-size="14.00">20</text>
</g>
<!-- 4&#45;&gt;1 -->
<g id="edge10" class="edge">
<title>4&#45;&gt;1</title>
<path fill="none" stroke="black" d="M86.86,-36.06C80.74,-80.03 64.41,-197.54 56.99,-250.93"/>
<polygon fill="black" stroke="black" points="53.5,-250.62 55.59,-261.01 60.43,-251.58 53.5,-250.62"/>
<text text-anchor="middle" x="77.23" y="-144.8" font-family="Times,serif" font-size="14.00">6</text>
</g>
<!-- 4&#45;&gt;2 -->
<g id="edge9" class="edge">
<title>4&#45;&gt;2</title>
<path fill="none" stroke="black" d="M97.82,-35.3C100.85,-41.16 104.25,-47.85 107.23,-54 114.25,-68.5 118.52,-71.32 122.23,-87 127.74,-110.37 123.54,-116.99 124.23,-141 124.44,-148.35 124.62,-156.3 124.76,-163.66"/>
<polygon fill="black" stroke="black" points="121.27,-163.94 124.96,-173.87 128.27,-163.81 121.27,-163.94"/>
<text text-anchor="middle" x="131.23" y="-101.3" font-family="Times,serif" font-size="14.00">&#45;3</text>
</g>
<!-- 3&#45;&gt;0 -->
<g id="edge8" class="edge">
<title>3&#45;&gt;0</title>
<path fill="none" stroke="black" d="M199.35,-123.18C197.1,-132.86 194.15,-145.14 191.23,-156 170.24,-233.94 165.8,-253.79 139.23,-330 138.2,-332.93 137.08,-335.98 135.92,-339"/>
<polygon fill="black" stroke="black" points="132.64,-337.79 132.23,-348.38 139.15,-340.36 132.64,-337.79"/>
<text text-anchor="middle" x="180.73" y="-231.8" font-family="Times,serif" font-size="14.00">13</text>
</g>
<!-- 3&#45;&gt;4 -->
<g id="edge7" class="edge">
<title>3&#45;&gt;4</title>
<path fill="none" stroke="black" d="M191.88,-88.63C183.45,-77.96 171.21,-63.94 158.23,-54 147.04,-45.43 133.42,-38 121.26,-32.22"/>
<polygon fill="black" stroke="black" points="122.44,-28.91 111.88,-27.95 119.53,-35.28 122.44,-28.91"/>
<text text-anchor="middle" x="181.23" y="-57.8" font-family="Times,serif" font-size="14.00">&#45;4</text>
</g>
</g>
</svg>
