<?xml version="1.0" encoding="UTF-8" standalone="no"?>
<!DOCTYPE svg PUBLIC "-//W3C//DTD SVG 1.1//EN"
 "http://www.w3.org/Graphics/SVG/1.1/DTD/svg11.dtd">
<!-- Generated by graphviz version 12.2.1 (20241206.2353)
 -->
<!-- Title: G Pages: 1 -->
<svg width="2309pt" height="658pt"
 viewBox="0.00 0.00 2308.84 657.84" xmlns="http://www.w3.org/2000/svg" xmlns:xlink="http://www.w3.org/1999/xlink">
<g id="graph0" class="graph" transform="scale(1 1) rotate(0) translate(4 653.84)">
<title>G</title>
<polygon fill="white" stroke="none" points="-4,4 -4,-653.84 2304.84,-653.84 2304.84,4 -4,4"/>
<!-- 0 -->
<g id="node1" class="node">
<title>0</title>
<ellipse fill="none" stroke="black" cx="1492.72" cy="-629.71" rx="20.13" ry="20.13"/>
<text text-anchor="middle" x="1492.72" y="-624.66" font-family="Times,serif" font-size="14.00">83</text>
</g>
<!-- 1 -->
<g id="node2" class="node">
<title>1</title>
<ellipse fill="none" stroke="black" cx="1185.72" cy="-532.46" rx="20.13" ry="20.13"/>
<text text-anchor="middle" x="1185.72" y="-527.41" font-family="Times,serif" font-size="14.00">33</text>
</g>
<!-- 0&#45;&gt;1 -->
<g id="edge1" class="edge">
<title>0&#45;&gt;1</title>
<path fill="none" stroke="black" d="M1473.52,-622.75C1421.61,-606.65 1278.24,-562.17 1215.63,-542.74"/>
<polygon fill="black" stroke="black" points="1216.95,-539.49 1206.36,-539.87 1214.88,-546.17 1216.95,-539.49"/>
</g>
<!-- 2 -->
<g id="node3" class="node">
<title>2</title>
<ellipse fill="none" stroke="black" cx="1738.72" cy="-532.46" rx="41.12" ry="41.12"/>
<text text-anchor="middle" x="1738.72" y="-527.41" font-family="Times,serif" font-size="14.00">51.4286</text>
</g>
<!-- 0&#45;&gt;2 -->
<g id="edge2" class="edge">
<title>0&#45;&gt;2</title>
<path fill="none" stroke="black" d="M1511.21,-621.55C1548.82,-606.99 1635.29,-573.51 1690.14,-552.27"/>
<polygon fill="black" stroke="black" points="1691.19,-555.62 1699.25,-548.75 1688.66,-549.09 1691.19,-555.62"/>
</g>
<!-- 3 -->
<g id="node4" class="node">
<title>3</title>
<ellipse fill="none" stroke="black" cx="573.72" cy="-414.23" rx="36.51" ry="36.51"/>
<text text-anchor="middle" x="573.72" y="-409.18" font-family="Times,serif" font-size="14.00">18.375</text>
</g>
<!-- 1&#45;&gt;3 -->
<g id="edge3" class="edge">
<title>1&#45;&gt;3</title>
<path fill="none" stroke="black" d="M1165.71,-527.66C1080.31,-511.44 745.1,-447.78 620.61,-424.14"/>
<polygon fill="black" stroke="black" points="621.54,-420.75 611.06,-422.32 620.23,-427.63 621.54,-420.75"/>
</g>
<!-- 4 -->
<g id="node5" class="node">
<title>4</title>
<ellipse fill="none" stroke="black" cx="1185.72" cy="-414.23" rx="20.13" ry="20.13"/>
<text text-anchor="middle" x="1185.72" y="-409.18" font-family="Times,serif" font-size="14.00">17</text>
</g>
<!-- 1&#45;&gt;4 -->
<g id="edge4" class="edge">
<title>1&#45;&gt;4</title>
<path fill="none" stroke="black" d="M1185.72,-512.01C1185.72,-494.07 1185.72,-467.15 1185.72,-446.25"/>
<polygon fill="black" stroke="black" points="1189.22,-446.26 1185.72,-436.26 1182.22,-446.26 1189.22,-446.26"/>
</g>
<!-- 5 -->
<g id="node6" class="node">
<title>5</title>
<ellipse fill="none" stroke="black" cx="1738.72" cy="-414.23" rx="41.12" ry="41.12"/>
<text text-anchor="middle" x="1738.72" y="-409.18" font-family="Times,serif" font-size="14.00">49.5556</text>
</g>
<!-- 2&#45;&gt;5 -->
<g id="edge5" class="edge">
<title>2&#45;&gt;5</title>
<path fill="none" stroke="black" d="M1738.72,-491.14C1738.72,-483.29 1738.72,-474.97 1738.72,-466.82"/>
<polygon fill="black" stroke="black" points="1742.22,-467 1738.72,-457 1735.22,-467 1742.22,-467"/>
</g>
<!-- 6 -->
<g id="node7" class="node">
<title>6</title>
<ellipse fill="none" stroke="black" cx="2009.72" cy="-414.23" rx="41.12" ry="41.12"/>
<text text-anchor="middle" x="2009.72" y="-409.18" font-family="Times,serif" font-size="14.00">20.9091</text>
</g>
<!-- 2&#45;&gt;6 -->
<g id="edge6" class="edge">
<title>2&#45;&gt;6</title>
<path fill="none" stroke="black" d="M1776.4,-515.3C1824.71,-494.58 1908.52,-458.64 1961.45,-435.94"/>
<polygon fill="black" stroke="black" points="1962.72,-439.2 1970.53,-432.04 1959.96,-432.76 1962.72,-439.2"/>
</g>
<!-- 7 -->
<g id="node8" class="node">
<title>7</title>
<ellipse fill="none" stroke="black" cx="291.72" cy="-296" rx="41.12" ry="41.12"/>
<text text-anchor="middle" x="291.72" y="-290.95" font-family="Times,serif" font-size="14.00">11.1429</text>
</g>
<!-- 3&#45;&gt;7 -->
<g id="edge7" class="edge">
<title>3&#45;&gt;7</title>
<path fill="none" stroke="black" d="M539.99,-399.33C490.27,-378.84 397.07,-340.42 340.08,-316.93"/>
<polygon fill="black" stroke="black" points="341.51,-313.74 330.93,-313.16 338.85,-320.21 341.51,-313.74"/>
</g>
<!-- 8 -->
<g id="node9" class="node">
<title>8</title>
<ellipse fill="none" stroke="black" cx="573.72" cy="-296" rx="18" ry="18"/>
<text text-anchor="middle" x="573.72" y="-290.95" font-family="Times,serif" font-size="14.00">7</text>
</g>
<!-- 3&#45;&gt;8 -->
<g id="edge8" class="edge">
<title>3&#45;&gt;8</title>
<path fill="none" stroke="black" d="M573.72,-377.41C573.72,-360.72 573.72,-341.14 573.72,-325.48"/>
<polygon fill="black" stroke="black" points="577.22,-325.89 573.72,-315.89 570.22,-325.89 577.22,-325.89"/>
</g>
<!-- 9 -->
<g id="node10" class="node">
<title>9</title>
<ellipse fill="none" stroke="black" cx="1083.72" cy="-296" rx="20.13" ry="20.13"/>
<text text-anchor="middle" x="1083.72" y="-290.95" font-family="Times,serif" font-size="14.00">12</text>
</g>
<!-- 4&#45;&gt;9 -->
<g id="edge9" class="edge">
<title>4&#45;&gt;9</title>
<path fill="none" stroke="black" d="M1172.8,-398.51C1155.48,-378.77 1124.55,-343.52 1104.08,-320.2"/>
<polygon fill="black" stroke="black" points="1106.76,-317.95 1097.53,-312.74 1101.5,-322.56 1106.76,-317.95"/>
</g>
<!-- 10 -->
<g id="node11" class="node">
<title>10</title>
<ellipse fill="none" stroke="black" cx="1290.72" cy="-296" rx="41.12" ry="41.12"/>
<text text-anchor="middle" x="1290.72" y="-290.95" font-family="Times,serif" font-size="14.00">11.3559</text>
</g>
<!-- 4&#45;&gt;10 -->
<g id="edge10" class="edge">
<title>4&#45;&gt;10</title>
<path fill="none" stroke="black" d="M1199.02,-398.51C1213.25,-382.76 1236.39,-357.14 1255.87,-335.58"/>
<polygon fill="black" stroke="black" points="1258.28,-338.13 1262.39,-328.36 1253.09,-333.44 1258.28,-338.13"/>
</g>
<!-- 11 -->
<g id="node12" class="node">
<title>11</title>
<ellipse fill="none" stroke="black" cx="1686.72" cy="-296" rx="20.13" ry="20.13"/>
<text text-anchor="middle" x="1686.72" y="-290.95" font-family="Times,serif" font-size="14.00">24</text>
</g>
<!-- 5&#45;&gt;11 -->
<g id="edge11" class="edge">
<title>5&#45;&gt;11</title>
<path fill="none" stroke="black" d="M1722.13,-376.14C1714.76,-359.67 1706.23,-340.6 1699.39,-325.31"/>
<polygon fill="black" stroke="black" points="1702.64,-324.01 1695.36,-316.32 1696.25,-326.87 1702.64,-324.01"/>
</g>
<!-- 12 -->
<g id="node13" class="node">
<title>12</title>
<ellipse fill="none" stroke="black" cx="1791.72" cy="-296" rx="41.12" ry="41.12"/>
<text text-anchor="middle" x="1791.72" y="-290.95" font-family="Times,serif" font-size="14.00">2.29167</text>
</g>
<!-- 5&#45;&gt;12 -->
<g id="edge12" class="edge">
<title>5&#45;&gt;12</title>
<path fill="none" stroke="black" d="M1755.49,-376.46C1760.13,-366.28 1765.23,-355.09 1770.11,-344.4"/>
<polygon fill="black" stroke="black" points="1773.29,-345.87 1774.25,-335.31 1766.92,-342.96 1773.29,-345.87"/>
</g>
<!-- 13 -->
<g id="node14" class="node">
<title>13</title>
<ellipse fill="none" stroke="black" cx="2009.72" cy="-296" rx="18" ry="18"/>
<text text-anchor="middle" x="2009.72" y="-290.95" font-family="Times,serif" font-size="14.00">7</text>
</g>
<!-- 6&#45;&gt;13 -->
<g id="edge13" class="edge">
<title>6&#45;&gt;13</title>
<path fill="none" stroke="black" d="M2009.72,-372.91C2009.72,-357.23 2009.72,-339.65 2009.72,-325.35"/>
<polygon fill="black" stroke="black" points="2013.22,-325.75 2009.72,-315.75 2006.22,-325.75 2013.22,-325.75"/>
</g>
<!-- 14 -->
<g id="node15" class="node">
<title>14</title>
<ellipse fill="none" stroke="black" cx="2159.72" cy="-296" rx="20.13" ry="20.13"/>
<text text-anchor="middle" x="2159.72" y="-290.95" font-family="Times,serif" font-size="14.00">16</text>
</g>
<!-- 6&#45;&gt;14 -->
<g id="edge14" class="edge">
<title>6&#45;&gt;14</title>
<path fill="none" stroke="black" d="M2041.9,-388.3C2069.84,-366.65 2109.7,-335.76 2135.14,-316.05"/>
<polygon fill="black" stroke="black" points="2137.17,-318.9 2142.93,-310.01 2132.88,-313.37 2137.17,-318.9"/>
</g>
<!-- 15 -->
<g id="node16" class="node">
<title>15</title>
<ellipse fill="none" stroke="black" cx="150.72" cy="-173.16" rx="18" ry="18"/>
<text text-anchor="middle" x="150.72" y="-168.11" font-family="Times,serif" font-size="14.00">7</text>
</g>
<!-- 7&#45;&gt;15 -->
<g id="edge15" class="edge">
<title>7&#45;&gt;15</title>
<path fill="none" stroke="black" d="M260.78,-268.48C234.16,-245.67 196.41,-213.32 172.76,-193.05"/>
<polygon fill="black" stroke="black" points="175.16,-190.5 165.29,-186.65 170.61,-195.82 175.16,-190.5"/>
</g>
<!-- 16 -->
<g id="node17" class="node">
<title>16</title>
<ellipse fill="none" stroke="black" cx="291.72" cy="-173.16" rx="41.12" ry="41.12"/>
<text text-anchor="middle" x="291.72" y="-168.11" font-family="Times,serif" font-size="14.00">5.90909</text>
</g>
<!-- 7&#45;&gt;16 -->
<g id="edge16" class="edge">
<title>7&#45;&gt;16</title>
<path fill="none" stroke="black" d="M291.72,-254.43C291.72,-245.26 291.72,-235.42 291.72,-225.86"/>
<polygon fill="black" stroke="black" points="295.22,-225.94 291.72,-215.94 288.22,-225.94 295.22,-225.94"/>
</g>
<!-- 17 -->
<g id="node18" class="node">
<title>17</title>
<ellipse fill="none" stroke="black" cx="523.72" cy="-173.16" rx="41.12" ry="41.12"/>
<text text-anchor="middle" x="523.72" y="-168.11" font-family="Times,serif" font-size="14.00">6.09524</text>
</g>
<!-- 8&#45;&gt;17 -->
<g id="edge17" class="edge">
<title>8&#45;&gt;17</title>
<path fill="none" stroke="black" d="M567.18,-279.2C561.17,-264.66 551.92,-242.32 543.5,-221.97"/>
<polygon fill="black" stroke="black" points="546.83,-220.87 539.78,-212.97 540.37,-223.54 546.83,-220.87"/>
</g>
<!-- 18 -->
<g id="node19" class="node">
<title>18</title>
<ellipse fill="none" stroke="black" cx="623.72" cy="-173.16" rx="41.12" ry="41.12"/>
<text text-anchor="middle" x="623.72" y="-168.11" font-family="Times,serif" font-size="14.00">2.95775</text>
</g>
<!-- 8&#45;&gt;18 -->
<g id="edge18" class="edge">
<title>8&#45;&gt;18</title>
<path fill="none" stroke="black" d="M580.26,-279.2C586.28,-264.66 595.52,-242.32 603.94,-221.97"/>
<polygon fill="black" stroke="black" points="607.08,-223.54 607.67,-212.97 600.61,-220.87 607.08,-223.54"/>
</g>
<!-- 19 -->
<g id="node20" class="node">
<title>19</title>
<ellipse fill="none" stroke="black" cx="928.72" cy="-173.16" rx="41.12" ry="41.12"/>
<text text-anchor="middle" x="928.72" y="-168.11" font-family="Times,serif" font-size="14.00">5.30769</text>
</g>
<!-- 9&#45;&gt;19 -->
<g id="edge19" class="edge">
<title>9&#45;&gt;19</title>
<path fill="none" stroke="black" d="M1068.01,-282.75C1045.14,-264.93 1001.92,-231.23 969.66,-206.08"/>
<polygon fill="black" stroke="black" points="972.11,-203.55 962.07,-200.17 967.81,-209.07 972.11,-203.55"/>
</g>
<!-- 20 -->
<g id="node21" class="node">
<title>20</title>
<ellipse fill="none" stroke="black" cx="1083.72" cy="-173.16" rx="41.12" ry="41.12"/>
<text text-anchor="middle" x="1083.72" y="-168.11" font-family="Times,serif" font-size="14.00">8.83871</text>
</g>
<!-- 9&#45;&gt;20 -->
<g id="edge20" class="edge">
<title>9&#45;&gt;20</title>
<path fill="none" stroke="black" d="M1083.72,-275.59C1083.72,-262.12 1083.72,-243.52 1083.72,-225.92"/>
<polygon fill="black" stroke="black" points="1087.22,-226.07 1083.72,-216.07 1080.22,-226.07 1087.22,-226.07"/>
</g>
<!-- 21 -->
<g id="node22" class="node">
<title>21</title>
<ellipse fill="none" stroke="black" cx="1290.72" cy="-173.16" rx="36.51" ry="36.51"/>
<text text-anchor="middle" x="1290.72" y="-168.11" font-family="Times,serif" font-size="14.00">5.3875</text>
</g>
<!-- 10&#45;&gt;21 -->
<g id="edge21" class="edge">
<title>10&#45;&gt;21</title>
<path fill="none" stroke="black" d="M1290.72,-254.43C1290.72,-243.85 1290.72,-232.37 1290.72,-221.48"/>
<polygon fill="black" stroke="black" points="1294.22,-221.48 1290.72,-211.48 1287.22,-221.48 1294.22,-221.48"/>
</g>
<!-- 22 -->
<g id="node23" class="node">
<title>22</title>
<ellipse fill="none" stroke="black" cx="1448.72" cy="-173.16" rx="41.12" ry="41.12"/>
<text text-anchor="middle" x="1448.72" y="-168.11" font-family="Times,serif" font-size="14.00">8.30769</text>
</g>
<!-- 10&#45;&gt;22 -->
<g id="edge22" class="edge">
<title>10&#45;&gt;22</title>
<path fill="none" stroke="black" d="M1323.08,-270.26C1347.47,-251.6 1381.1,-225.88 1407.43,-205.75"/>
<polygon fill="black" stroke="black" points="1409.39,-208.65 1415.21,-199.8 1405.14,-203.09 1409.39,-208.65"/>
</g>
<!-- 23 -->
<g id="node24" class="node">
<title>23</title>
<ellipse fill="none" stroke="black" cx="1586.72" cy="-173.16" rx="41.12" ry="41.12"/>
<text text-anchor="middle" x="1586.72" y="-168.11" font-family="Times,serif" font-size="14.00">5.98462</text>
</g>
<!-- 11&#45;&gt;23 -->
<g id="edge23" class="edge">
<title>11&#45;&gt;23</title>
<path fill="none" stroke="black" d="M1674.46,-280.18C1660.92,-263.83 1638.56,-236.81 1619.81,-214.14"/>
<polygon fill="black" stroke="black" points="1622.59,-212.02 1613.52,-206.55 1617.2,-216.48 1622.59,-212.02"/>
</g>
<!-- 24 -->
<g id="node25" class="node">
<title>24</title>
<ellipse fill="none" stroke="black" cx="1686.72" cy="-173.16" rx="41.12" ry="41.12"/>
<text text-anchor="middle" x="1686.72" y="-168.11" font-family="Times,serif" font-size="14.00">3.53846</text>
</g>
<!-- 11&#45;&gt;24 -->
<g id="edge24" class="edge">
<title>11&#45;&gt;24</title>
<path fill="none" stroke="black" d="M1686.72,-275.59C1686.72,-262.12 1686.72,-243.52 1686.72,-225.92"/>
<polygon fill="black" stroke="black" points="1690.22,-226.07 1686.72,-216.07 1683.22,-226.07 1690.22,-226.07"/>
</g>
<!-- 25 -->
<g id="node26" class="node">
<title>25</title>
<ellipse fill="none" stroke="black" cx="1791.72" cy="-173.16" rx="45.72" ry="45.72"/>
<text text-anchor="middle" x="1791.72" y="-168.11" font-family="Times,serif" font-size="14.00">0.712766</text>
</g>
<!-- 12&#45;&gt;25 -->
<g id="edge25" class="edge">
<title>12&#45;&gt;25</title>
<path fill="none" stroke="black" d="M1791.72,-254.43C1791.72,-246.69 1791.72,-238.47 1791.72,-230.35"/>
<polygon fill="black" stroke="black" points="1795.22,-230.51 1791.72,-220.51 1788.22,-230.51 1795.22,-230.51"/>
</g>
<!-- 26 -->
<g id="node27" class="node">
<title>26</title>
<ellipse fill="none" stroke="black" cx="1877.72" cy="-173.16" rx="22.69" ry="22.69"/>
<text text-anchor="middle" x="1877.72" y="-168.11" font-family="Times,serif" font-size="14.00">0.4</text>
</g>
<!-- 12&#45;&gt;26 -->
<g id="edge26" class="edge">
<title>12&#45;&gt;26</title>
<path fill="none" stroke="black" d="M1815.69,-262.13C1825.38,-248.76 1836.64,-233.12 1846.72,-218.89 1850.64,-213.35 1854.79,-207.41 1858.75,-201.72"/>
<polygon fill="black" stroke="black" points="1861.45,-203.96 1864.27,-193.74 1855.7,-199.97 1861.45,-203.96"/>
</g>
<!-- 27 -->
<g id="node28" class="node">
<title>27</title>
<ellipse fill="none" stroke="black" cx="1959.72" cy="-173.16" rx="41.12" ry="41.12"/>
<text text-anchor="middle" x="1959.72" y="-168.11" font-family="Times,serif" font-size="14.00">1.05556</text>
</g>
<!-- 13&#45;&gt;27 -->
<g id="edge27" class="edge">
<title>13&#45;&gt;27</title>
<path fill="none" stroke="black" d="M2003.18,-279.2C1997.17,-264.66 1987.92,-242.32 1979.5,-221.97"/>
<polygon fill="black" stroke="black" points="1982.83,-220.87 1975.78,-212.97 1976.37,-223.54 1982.83,-220.87"/>
</g>
<!-- 28 -->
<g id="node29" class="node">
<title>28</title>
<ellipse fill="none" stroke="black" cx="2059.72" cy="-173.16" rx="41.12" ry="41.12"/>
<text text-anchor="middle" x="2059.72" y="-168.11" font-family="Times,serif" font-size="14.00">1.72414</text>
</g>
<!-- 13&#45;&gt;28 -->
<g id="edge28" class="edge">
<title>13&#45;&gt;28</title>
<path fill="none" stroke="black" d="M2016.26,-279.2C2022.28,-264.66 2031.52,-242.32 2039.94,-221.97"/>
<polygon fill="black" stroke="black" points="2043.08,-223.54 2043.67,-212.97 2036.61,-220.87 2043.08,-223.54"/>
</g>
<!-- 29 -->
<g id="node30" class="node">
<title>29</title>
<ellipse fill="none" stroke="black" cx="2159.72" cy="-173.16" rx="41.12" ry="41.12"/>
<text text-anchor="middle" x="2159.72" y="-168.11" font-family="Times,serif" font-size="14.00">3.84524</text>
</g>
<!-- 14&#45;&gt;29 -->
<g id="edge29" class="edge">
<title>14&#45;&gt;29</title>
<path fill="none" stroke="black" d="M2159.72,-275.59C2159.72,-262.12 2159.72,-243.52 2159.72,-225.92"/>
<polygon fill="black" stroke="black" points="2163.22,-226.07 2159.72,-216.07 2156.22,-226.07 2163.22,-226.07"/>
</g>
<!-- 30 -->
<g id="node31" class="node">
<title>30</title>
<ellipse fill="none" stroke="black" cx="2259.72" cy="-173.16" rx="41.12" ry="41.12"/>
<text text-anchor="middle" x="2259.72" y="-168.11" font-family="Times,serif" font-size="14.00">1.96667</text>
</g>
<!-- 14&#45;&gt;30 -->
<g id="edge30" class="edge">
<title>14&#45;&gt;30</title>
<path fill="none" stroke="black" d="M2171.98,-280.18C2185.52,-263.83 2207.88,-236.81 2226.64,-214.14"/>
<polygon fill="black" stroke="black" points="2229.24,-216.48 2232.92,-206.55 2223.85,-212.02 2229.24,-216.48"/>
</g>
<!-- 31 -->
<g id="node32" class="node">
<title>31</title>
<ellipse fill="none" stroke="black" cx="45.72" cy="-45.72" rx="45.72" ry="45.72"/>
<text text-anchor="middle" x="45.72" y="-40.67" font-family="Times,serif" font-size="14.00">0.641975</text>
</g>
<!-- 15&#45;&gt;31 -->
<g id="edge31" class="edge">
<title>15&#45;&gt;31</title>
<path fill="none" stroke="black" d="M139.48,-158.74C125.87,-142.47 102.25,-114.25 82.12,-90.21"/>
<polygon fill="black" stroke="black" points="84.96,-88.15 75.86,-82.73 79.59,-92.64 84.96,-88.15"/>
</g>
<!-- 32 -->
<g id="node33" class="node">
<title>32</title>
<ellipse fill="none" stroke="black" cx="150.72" cy="-45.72" rx="41.12" ry="41.12"/>
<text text-anchor="middle" x="150.72" y="-40.67" font-family="Times,serif" font-size="14.00">4.83333</text>
</g>
<!-- 15&#45;&gt;32 -->
<g id="edge32" class="edge">
<title>15&#45;&gt;32</title>
<path fill="none" stroke="black" d="M150.72,-154.72C150.72,-140.14 150.72,-118.55 150.72,-98.51"/>
<polygon fill="black" stroke="black" points="154.22,-98.78 150.72,-88.78 147.22,-98.78 154.22,-98.78"/>
</g>
<!-- 33 -->
<g id="node34" class="node">
<title>33</title>
<ellipse fill="none" stroke="black" cx="250.72" cy="-45.72" rx="41.12" ry="41.12"/>
<text text-anchor="middle" x="250.72" y="-40.67" font-family="Times,serif" font-size="14.00">1.30357</text>
</g>
<!-- 16&#45;&gt;33 -->
<g id="edge33" class="edge">
<title>16&#45;&gt;33</title>
<path fill="none" stroke="black" d="M279.2,-133.85C275.3,-121.92 270.95,-108.6 266.84,-96.03"/>
<polygon fill="black" stroke="black" points="270.21,-95.09 263.78,-86.68 263.56,-97.27 270.21,-95.09"/>
</g>
<!-- 34 -->
<g id="node35" class="node">
<title>34</title>
<ellipse fill="none" stroke="black" cx="332.72" cy="-45.72" rx="22.69" ry="22.69"/>
<text text-anchor="middle" x="332.72" y="-40.67" font-family="Times,serif" font-size="14.00">5.2</text>
</g>
<!-- 16&#45;&gt;34 -->
<g id="edge34" class="edge">
<title>16&#45;&gt;34</title>
<path fill="none" stroke="black" d="M304.25,-133.85C310.02,-116.17 316.8,-95.42 322.3,-78.61"/>
<polygon fill="black" stroke="black" points="325.62,-79.72 325.4,-69.13 318.97,-77.54 325.62,-79.72"/>
</g>
<!-- 35 -->
<g id="node36" class="node">
<title>35</title>
<ellipse fill="none" stroke="black" cx="418.72" cy="-45.72" rx="45.72" ry="45.72"/>
<text text-anchor="middle" x="418.72" y="-40.67" font-family="Times,serif" font-size="14.00">0.517241</text>
</g>
<!-- 17&#45;&gt;35 -->
<g id="edge35" class="edge">
<title>17&#45;&gt;35</title>
<path fill="none" stroke="black" d="M497.77,-141.16C484.84,-125.71 468.99,-106.78 454.9,-89.94"/>
<polygon fill="black" stroke="black" points="457.78,-87.93 448.68,-82.51 452.41,-92.43 457.78,-87.93"/>
</g>
<!-- 36 -->
<g id="node37" class="node">
<title>36</title>
<ellipse fill="none" stroke="black" cx="523.72" cy="-45.72" rx="41.12" ry="41.12"/>
<text text-anchor="middle" x="523.72" y="-40.67" font-family="Times,serif" font-size="14.00">0.27957</text>
</g>
<!-- 17&#45;&gt;36 -->
<g id="edge36" class="edge">
<title>17&#45;&gt;36</title>
<path fill="none" stroke="black" d="M523.72,-131.78C523.72,-121.15 523.72,-109.53 523.72,-98.4"/>
<polygon fill="black" stroke="black" points="527.22,-98.54 523.72,-88.54 520.22,-98.54 527.22,-98.54"/>
</g>
<!-- 37 -->
<g id="node38" class="node">
<title>37</title>
<ellipse fill="none" stroke="black" cx="623.72" cy="-45.72" rx="41.12" ry="41.12"/>
<text text-anchor="middle" x="623.72" y="-40.67" font-family="Times,serif" font-size="14.00">1.77273</text>
</g>
<!-- 18&#45;&gt;37 -->
<g id="edge37" class="edge">
<title>18&#45;&gt;37</title>
<path fill="none" stroke="black" d="M623.72,-131.78C623.72,-121.15 623.72,-109.53 623.72,-98.4"/>
<polygon fill="black" stroke="black" points="627.22,-98.54 623.72,-88.54 620.22,-98.54 627.22,-98.54"/>
</g>
<!-- 38 -->
<g id="node39" class="node">
<title>38</title>
<ellipse fill="none" stroke="black" cx="723.72" cy="-45.72" rx="41.12" ry="41.12"/>
<text text-anchor="middle" x="723.72" y="-40.67" font-family="Times,serif" font-size="14.00">1.32857</text>
</g>
<!-- 18&#45;&gt;38 -->
<g id="edge38" class="edge">
<title>18&#45;&gt;38</title>
<path fill="none" stroke="black" d="M648.96,-140.51C661.86,-124.32 677.72,-104.43 691.5,-87.14"/>
<polygon fill="black" stroke="black" points="694.06,-89.55 697.55,-79.55 688.58,-85.19 694.06,-89.55"/>
</g>
<!-- 39 -->
<g id="node40" class="node">
<title>39</title>
<ellipse fill="none" stroke="black" cx="823.72" cy="-45.72" rx="41.12" ry="41.12"/>
<text text-anchor="middle" x="823.72" y="-40.67" font-family="Times,serif" font-size="14.00">1.95312</text>
</g>
<!-- 19&#45;&gt;39 -->
<g id="edge39" class="edge">
<title>19&#45;&gt;39</title>
<path fill="none" stroke="black" d="M902.77,-141.16C888.88,-124.57 871.64,-103.97 856.81,-86.25"/>
<polygon fill="black" stroke="black" points="859.82,-84.39 850.71,-78.97 854.45,-88.88 859.82,-84.39"/>
</g>
<!-- 40 -->
<g id="node41" class="node">
<title>40</title>
<ellipse fill="none" stroke="black" cx="928.72" cy="-45.72" rx="45.72" ry="45.72"/>
<text text-anchor="middle" x="928.72" y="-40.67" font-family="Times,serif" font-size="14.00">0.988372</text>
</g>
<!-- 19&#45;&gt;40 -->
<g id="edge40" class="edge">
<title>19&#45;&gt;40</title>
<path fill="none" stroke="black" d="M928.72,-131.78C928.72,-122.62 928.72,-112.72 928.72,-103.04"/>
<polygon fill="black" stroke="black" points="932.22,-103.33 928.72,-93.33 925.22,-103.33 932.22,-103.33"/>
</g>
<!-- 41 -->
<g id="node42" class="node">
<title>41</title>
<ellipse fill="none" stroke="black" cx="1033.72" cy="-45.72" rx="41.12" ry="41.12"/>
<text text-anchor="middle" x="1033.72" y="-40.67" font-family="Times,serif" font-size="14.00">2.86364</text>
</g>
<!-- 20&#45;&gt;41 -->
<g id="edge41" class="edge">
<title>20&#45;&gt;41</title>
<path fill="none" stroke="black" d="M1068.72,-134.53C1063.73,-122 1058.1,-107.87 1052.83,-94.67"/>
<polygon fill="black" stroke="black" points="1056.23,-93.73 1049.27,-85.74 1049.72,-96.32 1056.23,-93.73"/>
</g>
<!-- 42 -->
<g id="node43" class="node">
<title>42</title>
<ellipse fill="none" stroke="black" cx="1133.72" cy="-45.72" rx="41.12" ry="41.12"/>
<text text-anchor="middle" x="1133.72" y="-40.67" font-family="Times,serif" font-size="14.00">2.85714</text>
</g>
<!-- 20&#45;&gt;42 -->
<g id="edge42" class="edge">
<title>20&#45;&gt;42</title>
<path fill="none" stroke="black" d="M1098.72,-134.53C1103.72,-122 1109.35,-107.87 1114.61,-94.67"/>
<polygon fill="black" stroke="black" points="1117.72,-96.32 1118.17,-85.74 1111.22,-93.73 1117.72,-96.32"/>
</g>
<!-- 43 -->
<g id="node44" class="node">
<title>43</title>
<ellipse fill="none" stroke="black" cx="1238.72" cy="-45.72" rx="45.72" ry="45.72"/>
<text text-anchor="middle" x="1238.72" y="-40.67" font-family="Times,serif" font-size="14.00">0.661538</text>
</g>
<!-- 21&#45;&gt;43 -->
<g id="edge43" class="edge">
<title>21&#45;&gt;43</title>
<path fill="none" stroke="black" d="M1276.92,-138.88C1271.79,-126.5 1265.84,-112.14 1260.19,-98.5"/>
<polygon fill="black" stroke="black" points="1263.58,-97.55 1256.52,-89.65 1257.11,-100.23 1263.58,-97.55"/>
</g>
<!-- 44 -->
<g id="node45" class="node">
<title>44</title>
<ellipse fill="none" stroke="black" cx="1343.72" cy="-45.72" rx="41.12" ry="41.12"/>
<text text-anchor="middle" x="1343.72" y="-40.67" font-family="Times,serif" font-size="14.00">3.48936</text>
</g>
<!-- 21&#45;&gt;44 -->
<g id="edge44" class="edge">
<title>21&#45;&gt;44</title>
<path fill="none" stroke="black" d="M1304.65,-139.21C1310.42,-125.54 1317.23,-109.41 1323.54,-94.49"/>
<polygon fill="black" stroke="black" points="1326.76,-95.85 1327.43,-85.28 1320.31,-93.13 1326.76,-95.85"/>
</g>
<!-- 45 -->
<g id="node46" class="node">
<title>45</title>
<ellipse fill="none" stroke="black" cx="1448.72" cy="-45.72" rx="45.72" ry="45.72"/>
<text text-anchor="middle" x="1448.72" y="-40.67" font-family="Times,serif" font-size="14.00">0.126582</text>
</g>
<!-- 22&#45;&gt;45 -->
<g id="edge45" class="edge">
<title>22&#45;&gt;45</title>
<path fill="none" stroke="black" d="M1448.72,-131.78C1448.72,-122.62 1448.72,-112.72 1448.72,-103.04"/>
<polygon fill="black" stroke="black" points="1452.22,-103.33 1448.72,-93.33 1445.22,-103.33 1452.22,-103.33"/>
</g>
<!-- 46 -->
<g id="node47" class="node">
<title>46</title>
<ellipse fill="none" stroke="black" cx="1539.72" cy="-45.72" rx="27.3" ry="27.3"/>
<text text-anchor="middle" x="1539.72" y="-40.67" font-family="Times,serif" font-size="14.00">0.95</text>
</g>
<!-- 22&#45;&gt;46 -->
<g id="edge46" class="edge">
<title>22&#45;&gt;46</title>
<path fill="none" stroke="black" d="M1472.63,-139.21C1486.44,-120.17 1503.71,-96.36 1517.27,-77.67"/>
<polygon fill="black" stroke="black" points="1520.05,-79.79 1523.09,-69.65 1514.39,-75.68 1520.05,-79.79"/>
</g>
<!-- 47 -->
<g id="node48" class="node">
<title>47</title>
<ellipse fill="none" stroke="black" cx="1625.72" cy="-45.72" rx="41.12" ry="41.12"/>
<text text-anchor="middle" x="1625.72" y="-40.67" font-family="Times,serif" font-size="14.00">1.09375</text>
</g>
<!-- 23&#45;&gt;47 -->
<g id="edge47" class="edge">
<title>23&#45;&gt;47</title>
<path fill="none" stroke="black" d="M1598.74,-133.5C1602.41,-121.7 1606.5,-108.56 1610.36,-96.14"/>
<polygon fill="black" stroke="black" points="1613.6,-97.5 1613.23,-86.92 1606.91,-95.43 1613.6,-97.5"/>
</g>
</g>
</svg>
